<svg xmlns="http://www.w3.org/2000/svg" xmlns:xlink="http://www.w3.org/1999/xlink" fill-rule="evenodd" stroke-linejoin="round" stroke-miterlimit="1.41" clip-rule="evenodd" viewBox="0 0 149 146"><path fill="#fef97c" d="M24.09 111.97s10.19-4.92-14.83-18.5c26-3.34 23.52-4.5 11.25-17.64 26.2 7.09 11.98-12.05-11.25-31.76C39.79 57.51 87.03 58.14 80.39 54.6c-6.64-3.56 28.89 6.19 49.06-7.24-14.32 22.01-40.07 38.5 8.01 32.43-14.37 6.7-42.26 16.56 0 22.3-12.4 3.22-27.59 5.36-8 18.95 19.57 13.6-105.37-9.07-105.37-9.07z"/><path fill="#e49f0c" fill-rule="nonzero" d="M9.62 44.23c19.53 8.45 41.6 12.08 62.4 12.2 1.19 0 2.38 0 3.58-.06 1.84-.08 4.2.3 5.32-.93.8-.89-3.07-1.71-.36-1.7 4.89.04 9.83.82 14.8.95 11.9.3 24.2-.81 34.1-7.34-5.67 8.66-13.51 15.77-18.41 24.62-1.08 1.95-2.06 4.24-1 6.07 1.58 2.73 5.26 2.73 7.87 2.91 6.49.45 13.03-.35 19.54-1.17-6.63 3.08-13.72 5.55-19.25 9.72-1.65 1.24-3.53 2.85-3.09 4.86.75 3.39 4.86 4.03 7.89 4.92 4.7 1.37 9.57 2.13 14.45 2.8-5.86 1.51-12.88 2.13-16.37 5.97-2.01 2.2.03 5.76 1.7 7.52.33.35.67.68 1.01 1 2.67 2.52 8.37 4.13 7.71 7.06-.54 2.4-3.83 1.62-6.1 1.71-14.98.58-30.17-2.15-45.36-4.31a1546.36 1546.36 0 0 1-55.6-9s-.66.14-.05-.25c2.95-2.02.73-6.74-1.59-9.04-3.86-3.85-8.68-6.62-13.55-9.27 6.08-.8 12.58-1.09 17.77-3.38 1.01-.44 2.09-1.06 2.35-2.17.56-2.42-1.71-4.25-3.12-5.87-1.67-1.92-3.44-3.76-5.18-5.61l-.57-.6c4.81 1.28 11.34 3.55 13.66-.22 1.54-2.5-.62-5.61-1.9-7.66-.36-.58-.74-1.14-1.14-1.7-5.97-8.44-13.9-15.4-21.87-22.19l.36.16zm13.75 8.48c5.78 5.83 12.39 11.98 14 19.37.72 3.37-1.3 7.02-4.8 7.87-1.74.42-4.17.28-4.17.28a107.72 107.72 0 0 1 1.4 1.72l.6.83c1.2 1.73 2.2 3.84 1.59 6.04 0 0-.31 1.01-1 1.82-2.55 2.95-6.8 3.27-10.28 3.87-1.5.26-3.66.57-3.66.57l.83.55c5.61 3.79 12.04 8.7 10.5 14.6l-.01.01c27.16 4.58 54.3 9.06 81.82 11.32 5.05.42 10.13.82 15.15.57-4.6-3.39-9.91-7.5-8.45-13.3.69-2.69 3.14-4.65 5.77-5.91 0 0-4.35-1.33-6.48-2.5-3.23-1.78-5.92-5.8-3.93-9.65 1.38-2.65 4-4.45 6.67-6.06 0 0-3.83-.16-6.61-1-3.28-.97-6.26-3.44-6.35-7.22-.1-4.88 3.37-8.9 6.13-12.47 2-2.61 4.12-5.15 6.19-7.72 0 0 1.86-.66-1.44.12-10.79 2.48-22.06 2.05-33.02 1.09 0 0-1.57 1.44-3.18 1.82-6.58 1.57-13.72.58-20.8-.06a193.97 193.97 0 0 1-36.62-6.75s.07.12.15.2zM129.2 121.6zm0 0c.01 0 .05-.03 0 0zm.01 0s.1-.04 0 0zm.02-.01s.1-.05 0 0zm0 0s.07-.04 0 0z"/><path fill="#be8014" fill-rule="nonzero" d="M6.37 97.98c1.88.02 4.36.68 4.77.82 1.08.35 2.6 1 2.6 1 1.46.7 1.7.83 2.35 1.2l1.42.8.66 1.57-1.58.67c-1.2-.3-2.92-.7-2.92-.7-2.63-.72-4.9-1.9-8.45-2.83l-.14-.03-1.27-1.16s.53-1.35 2.56-1.34zm9.3-40.57c2.17.54 4.56 2.5 4.56 2.5 1.6 1.29 2.8 2.26 5.38 5.4l1.28 1.63v1.7h-1.7a281.2 281.2 0 0 1-3.72-2.88c-.95-.8-1.62-1.34-3.47-3.05 0 0-1.15-1.42-3.05-2.96l-.88-1.56s1.29-.84 1.6-.78zm124.6 27.29l-.65 1.6-.95.57a107.36 107.36 0 0 1-3.26 1.95l-1.64.85c-1.66.77-3.8 1.7-3.8 1.7-1.22.49-2.89 1.12-2.89 1.12l-2.2.79-1.6-.55.54-1.61c5.95-3.86.88-1.15 8.22-4.67l1.41-.63a79.42 79.42 0 0 1 3.23-1.14c2.93-.9 2.77-.3 3.6.02z"/><path fill="url(#_Linear1)" d="M10.69 144.16s-8.33-5.87-8.77-9.38c-.43-3.5-1.48-6.79 0-10.23 1.48-3.45 6.36-2.56 19.33-9.85 12.97-7.3 46.9-13.6 53.3-13.5 8.3-.14 38.94 6.2 51.91 13.5 12.98 7.3 17.85 6.4 19.33 9.85 1.48 3.44.43 6.73 0 10.23-.43 3.51-8.76 9.38-8.76 9.38H10.68z"/><clipPath id="a"><path d="M10.69 144.16s-8.33-5.87-8.77-9.38c-.43-3.5-1.48-6.79 0-10.23 1.48-3.45 6.36-2.56 19.33-9.85 12.97-7.3 46.9-13.6 53.3-13.5 8.3-.14 38.94 6.2 51.91 13.5 12.98 7.3 17.85 6.4 19.33 9.85 1.48 3.44.43 6.73 0 10.23-.43 3.51-8.76 9.38-8.76 9.38H10.68z"/></clipPath><g clip-path="url(#a)"><path fill="#24140e" d="M80.35 101.9s-2.26 8.43-3.24 14.19c-.57 3.35-4.45 4.5-5.97 0-.53-1.56-1.6-10.08-3.96-13.5-2.8-4.07 14.73-2.69 13.17-.69z"/><clipPath id="b"><path d="M80.35 101.9s-2.26 8.43-3.24 14.19c-.57 3.35-4.45 4.5-5.97 0-.53-1.56-1.6-10.08-3.96-13.5-2.8-4.07 14.73-2.69 13.17-.69z"/></clipPath><g clip-path="url(#b)"><path fill="#44271d" d="M82.22 100.51s-2.25 8.43-3.23 14.19c-.57 3.35-4.45 4.5-5.97 0-.53-1.56-1.6-10.08-3.96-13.5-2.8-4.07 14.73-2.69 13.16-.69z"/></g><path fill="#24140e" d="M63 98.66s1.45 6.92 2.86 11.43c.82 2.63-1.57 4.9-4.34 2.21-.95-.93-4.87-6.67-7.83-8.27-3.53-1.9 9.7-7.4 9.3-5.37z"/><clipPath id="c"><path d="M63 98.66s1.45 6.92 2.86 11.43c.82 2.63-1.57 4.9-4.34 2.21-.95-.93-4.87-6.67-7.83-8.27-3.53-1.9 9.7-7.4 9.3-5.37z"/></clipPath><g clip-path="url(#c)"><path fill="#44271d" d="M64.1 97.14s1.45 6.91 2.86 11.42c.82 2.63-1.58 4.9-4.34 2.21-.96-.92-4.87-6.67-7.83-8.27-3.53-1.9 9.7-7.39 9.3-5.36z"/></g><path fill="#24140e" d="M84.85 98.66s-1.46 6.92-2.87 11.43c-.82 2.63 1.58 4.9 4.34 2.21.96-.93 4.87-6.67 7.83-8.27 3.53-1.9-9.7-7.4-9.3-5.37z"/><clipPath id="d"><path d="M84.85 98.66s-1.46 6.92-2.87 11.43c-.82 2.63 1.58 4.9 4.34 2.21.96-.93 4.87-6.67 7.83-8.27 3.53-1.9-9.7-7.4-9.3-5.37z"/></clipPath><g clip-path="url(#d)"><path fill="#44271d" d="M83.62 96.79s-1.46 6.92-2.86 11.43c-.82 2.63 1.57 4.9 4.33 2.2.96-.92 4.87-6.67 7.84-8.27 3.52-1.9-9.7-7.38-9.3-5.36z"/></g><circle cx="44.64" cy="121.84" r="16.86" fill="url(#_Radial6)"/><circle cx="103.56" cy="121.84" r="16.86" fill="url(#_Radial7)"/></g><path fill="#fbc5a1" d="M3.72 130.21s3.52-4.62 8.47-3.9c4.95.72 10.42 2.87 13.9 6.26-2.36-5.12-7.51-10.43-12.87-9.82-5.37.61-9.74 2.62-9.5 7.46zm141.58 0s-3.52-4.62-8.47-3.9c-4.95.72-10.42 2.87-13.9 6.26 2.36-5.12 7.51-10.43 12.87-9.82 5.36.61 9.74 2.62 9.5 7.46z"/><path fill="url(#_Radial8)" d="M44.04 144.06s-1.9 4.94 1.14-2.45c3.05-7.4 18.52-6.83 18.52-6.83h7.33v9.28H44.17l1.01-2.45c-3.04 7.4-1.14 2.45-1.14 2.45h.13-.13zm59.78 0H76.96v-9.28h7.33s15.46-.57 18.51 6.83c3.05 7.4 1.15 2.45 1.15 2.45h-.13.13s1.9 4.94-1.15-2.45l1.02 2.45z"/><path fill="url(#_Linear9)" d="M11.47 144.1s-9.25-3.37-8.52-9.77c.26-2.32 2.08-4.7 7.52-5.34 5.44-.64 14.74 3.45 15.11 5.34.37 1.9 1.45 9.75.78 9.78-.67.02-14.9 0-14.9 0z"/><clipPath id="e"><path d="M11.47 144.1s-9.25-3.37-8.52-9.77c.26-2.32 2.08-4.7 7.52-5.34 5.44-.64 14.74 3.45 15.11 5.34.37 1.9 1.45 9.75.78 9.78-.67.02-14.9 0-14.9 0z"/></clipPath><g clip-path="url(#e)"><path fill="#f8d3b9" d="M5.42 131.36c-.66.1 3.8-1.82 2.77-.64-1.8 2.03-2.07 5.11 0 5.5 1.04.2 5.89-1.82 5.46 0-.33 1.46.57 5.25 6.48 4.48 1.82-.24 1.53 2.37 1.27 3.4-6.5.91-9.13 0-9.13 0s-17.02-6.42-6.85-12.74z"/></g><clipPath id="g"><path d="M137.63 144.1s9.26-3.42 8.53-9.92c-.27-2.35-1.23-4.88-6.67-5.53-5.44-.66-15.6 3.61-15.97 5.53-.37 1.92-1.45 9.9-.78 9.93.67.02 14.9 0 14.9 0z"/></clipPath><g clip-path="url(#g)"><path fill="#f8d3b9" d="M143.79 131.36c.66.1-3.8-1.82-2.77-.64 1.8 2.03 2.07 5.11 0 5.5-1.04.2-5.89-1.82-5.46 0 .34 1.46-.57 5.25-6.47 4.48-1.83-.24-1.54 2.37-1.27 3.4 6.49.91 9.12 0 9.12 0s17.02-6.42 6.85-12.74z"/></g><path fill="url(#_Linear14)" d="M73 131.14c2.07-.05 12.28.91 11.93 5.24-.34 4.06-2.32 7.77-4.67 7.77h-14.5c-2.36 0-4.34-3.71-4.67-7.77-.35-4.33 9.5-5.16 11.9-5.24h.02z"/><clipPath id="h"><path d="M73 131.14c2.07-.05 12.28.91 11.93 5.24-.34 4.06-2.32 7.77-4.67 7.77h-14.5c-2.36 0-4.34-3.71-4.67-7.77-.35-4.33 9.5-5.16 11.9-5.24h.02z"/></clipPath><g fill="#fff" clip-path="url(#h)"><path fill-opacity=".2" d="M61.1 132.68s-2.44 3.58 1.84 3.7c4.27.12 20.77 1.31 22.82.69 2.06-.63-3.26-9.4-24.67-4.4z"/><ellipse cx="68.38" cy="136.23" fill-opacity=".7" rx="3.29" ry="1.62"/></g><path fill="url(#_Linear16)" fill-rule="nonzero" d="M73.38 131.14c5.71.13 12.85 1.58 12.39 5.62a14.18 14.18 0 0 1-.9 3.54 10.97 10.97 0 0 1-1.15 2.06 6.1 6.1 0 0 1-.27.34c-1.72 2-5.24 1.46-8.23 1.46-3.35 0-6.71.04-10.06 0-3.97-.16-4.63-5-4.91-7.4-.51-4.46 8.23-5.67 13.13-5.62zm-.32 1.81c-3.64-.18-10.49 1.21-10.2 3.22.28 1.94.58 3.86 2.3 4.84 2.66 1.95 14.06 2.42 15.99.4 1.55-.79 1.72-2.8 2.1-5.24.29-1.91-6.27-3-10.02-3.2l-.17-.02z"/><path fill="url(#_Linear17)" d="M145.17 129.98v-.57c.05-5.95-11.73-5.88-19.08-10.2l-.87-.51c-15.95-8.99-33.62-15.84-51.91-16.37l-.05.04c-4.4-.02-14.96 1.85-23.5 4.64a136.7 136.7 0 0 0-22.31 9.5c-5.95 3.2-12.07 5.25-19.37 7.75a15 15 0 0 0-.94.34c-2.22.85-3.08 2.8-3.31 5.32a11.09 11.09 0 0 1 8.53-3.8c5.24.13 10.09 3.05 13.65 6.38 0 0 1.7 2.42 1.41 5.79.14 1.73-2.26 2.19-2.42.14-.04-.57.11-.53-.14-2.04-.53-3.1-5.67-4.66-8.1-5.6-4.26-1.63-9.51-1.4-12.9 3.36l.08.92c.34 3.87 3.87 6.03 7.01 7.26 2.17 1.31 3.35 2.37-.7 2.02-4.15-1.3-8.26-3.93-9.14-8.38-.68-3.89-2.14-7.91.03-11.4 3.67-5.9 13.19-5.72 18.95-9.52 11.15-7.28 24.41-11.29 37.47-13.63 4.1-.73 8.25-1.25 12.43-1.3h1.31c1.86-.1 3.73-.1 5.59-.1 14.76.08 29.6 3.96 43.25 10.4 4.66 2.21 8.73 5.42 13.3 7.15 6.05 2.28 14.52 2.88 15.01 10.37.23 3.49.04 6.97-1.84 10.38-1.69 3.07-4.95 4.93-8.17 6-2.57.55-3.2-1.48-.8-2l.29-.11a18 18 0 0 0 2.88-1.56c2.28-1.54 3.5-3.9 4.03-6.98-2.82-3.5-7.34-4.99-12.9-2.73a32.6 32.6 0 0 0-6.97 3.96c-1.24.96-.9 3.52-.9 3.52-.93 1.4-1.71 1.18-2.42-.01a19.8 19.8 0 0 0-.04-.5c-.31-3.26 1.5-6.14 5.77-8.76 2.95-1.81 5.96-3.06 9.7-3.03 3.02.08 5.93 1.58 8.1 3.86z"/><path fill="url(#_Radial18)" d="M37.48 103.37c7.29-2.64 16.15 1.58 19.4 10.54 3.25 8.96-1.15 17.94-8.44 20.58-7.3 2.65-14.72-2.03-17.97-11-3.26-8.96-.28-17.47 7-20.12z"/><clipPath id="i"><path d="M37.48 103.37c7.29-2.64 16.15 1.58 19.4 10.54 3.25 8.96-1.15 17.94-8.44 20.58-7.3 2.65-14.72-2.03-17.97-11-3.26-8.96-.28-17.47 7-20.12z"/></clipPath><g clip-path="url(#i)"><path fill="#49525f" fill-opacity=".2" d="M32.93 123.5s16.18 7.01 22.56 0c6.39-7.02-.94 14.8-10.48 11.21-9.55-3.57-12.08-11.21-12.08-11.21z"/></g><path fill="url(#_Linear20)" fill-rule="nonzero" d="M41.73 102.16c8.67.21 15.21 7.88 16.57 15.21 1.36 7.38-1.94 15.42-10.52 17.8-7.72 2.14-15.05-3.77-17.8-11.12-.45-1.2-.8-2.45-1.03-3.72-1.47-7.9 1.08-17.07 11.31-18.1.46-.06.58-.08 1.47-.07zm-.64 1.75c-3.37.06-4.5 1.15-5.93 2.66-5.74 6.03-2.86 17.49 2.36 22.48 3.55 3.4 9.18 5 13.27 1.85 7.2-5.55 4.01-18.67-1.62-23.66-2.25-2-5.08-3.34-8.08-3.33z"/><path fill="url(#_Linear21)" d="M42.48 112.92l1.47-5.73 3.64.94-1.47 5.72 5.72 1.48-.94 3.63-5.72-1.47-1.47 5.72-3.64-.93 1.47-5.73-5.72-1.47.93-3.64 5.73 1.48z"/><path fill="url(#_Radial22)" d="M110.28 103.37c-7.28-2.64-16.15 1.58-19.4 10.54-3.25 8.96 1.16 17.94 8.44 20.58 7.3 2.65 14.72-2.03 17.98-11 3.25-8.96.27-17.47-7.01-20.12z"/><clipPath id="j"><path d="M110.28 103.37c-7.28-2.64-16.15 1.58-19.4 10.54-3.25 8.96 1.16 17.94 8.44 20.58 7.3 2.65 14.72-2.03 17.98-11 3.25-8.96.27-17.47-7.01-20.12z"/></clipPath><g clip-path="url(#j)"><path fill="#49525f" fill-opacity=".2" d="M114.83 123.5s-16.17 7.01-22.56 0c-6.39-7.02.94 14.8 10.48 11.21 9.55-3.57 12.08-11.21 12.08-11.21z"/></g><path fill="url(#_Linear24)" d="M106.09 112.82l-1.48-5.73-3.63.94 1.47 5.72-5.73 1.48.94 3.64 5.73-1.48 1.47 5.73 3.64-.94-1.48-5.73 5.73-1.47-.94-3.64-5.72 1.48z"/><path fill="url(#_Linear25)" fill-rule="nonzero" d="M106.03 102.16c-8.67.21-15.21 7.88-16.57 15.21-1.36 7.38 1.94 15.42 10.52 17.8 7.72 2.14 15.05-3.77 17.8-11.12.45-1.2.8-2.45 1.04-3.72 1.46-7.9-1.09-17.07-11.32-18.1-.46-.06-.58-.08-1.47-.07zm.64 1.75c3.37.06 4.5 1.15 5.93 2.66 5.74 6.03 2.86 17.49-2.36 22.48-3.55 3.4-9.18 5-13.27 1.85-7.2-5.55-4.01-18.67 1.62-23.66 2.25-2 5.08-3.34 8.08-3.33z"/><path fill="url(#_Linear26)" d="M140.95 72.16v.03l-35.78-11.66 3.13-19.8 37.87 12.9c2.4.88 3.13 5.65 1.64 10.71-1.44 4.92-4.46 8.32-6.86 7.82z"/><path fill="url(#_Linear27)" d="M56.16 9.45C58.8 1.1 71.98-2.37 88.55 1.71c16.57 4.09 26.41 14.22 24.86 22.83l.04.01-12.16 57.48-61.32-15.11L56.13 9.44l.03.01z"/><clipPath id="k"><path d="M56.16 9.45C58.8 1.1 71.98-2.37 88.55 1.71c16.57 4.09 26.41 14.22 24.86 22.83l.04.01-12.16 57.48-61.32-15.11L56.13 9.44l.03.01z"/></clipPath><g clip-path="url(#k)"><path fill="url(#_Linear29)" d="M42.63 52.2c8.87-4.16 21.02-5.21 33.54-2.13 13.65 3.37 24.61 10.87 30.2 19.6l-3.24 14.75-3.07-1.73-2.87-5.82-10.82-9.28-15.77-5.57H53l-14.33 7.2 3.97-17.02z"/><path fill="url(#_Linear30)" d="M54.5 12.32L58.59.02c9.21-3.33 21.4-3.28 33.6.93 13.29 4.6 23.52 13.06 28.3 22.26l-4.58 14.4-1.01-.7c-.71-11.84-13.32-23.48-30.68-27.35-11.18-2.5-21.94-1.24-29.7 2.76z"/></g><path fill="url(#_Linear31)" d="M50.59 42.58l-.01.02-6.37-1.67 5.33-18.8 6.27 1.66c2.38.77 3.12 5.5 1.64 10.63-1.45 4.99-4.47 8.54-6.86 8.16z"/><path fill="#e5c682" d="M49.82 22.2c2.44.7 3.2 5.48 1.7 10.66-1.5 5.18-4.69 8.8-7.13 8.1-2.43-.7-3.2-5.48-1.7-10.66 1.5-5.17 4.7-8.8 7.13-8.1z"/><path fill="#dbb053" d="M48.4 25.62c1.3.38 1.6 3.3.67 6.53-.94 3.22-2.75 5.54-4.05 5.16-1.3-.37-1.6-3.3-.66-6.53.93-3.22 2.75-5.53 4.04-5.16z"/><path fill="#d5911a" d="M101.26 82.02c-2.15 8.72-17.62 12.42-34.53 8.26-16.91-4.17-28.9-14.64-26.75-23.36 2.15-8.72 17.63-12.42 34.54-8.25 16.9 4.16 28.89 14.63 26.74 23.35z"/><path fill="#a95913" fill-opacity=".3" d="M92.6 80.4c-1.38 5.6-12.24 7.74-24.24 4.78-12-2.96-20.62-9.9-19.24-15.5 1.38-5.6 12.24-7.74 24.24-4.78 12 2.95 20.61 9.9 19.23 15.5z"/><path fill="#c36818" fill-opacity=".4" d="M84.22 78.98c-.7 2.85-7.4 3.67-14.93 1.81-7.53-1.86-13.08-5.68-12.37-8.54.7-2.86 7.39-3.67 14.92-1.81 7.53 1.86 13.08 5.68 12.38 8.54z"/><defs><linearGradient id="_Linear1" x2="1" gradientTransform="rotate(87.89 -22.46 93.72) scale(37.16238)" gradientUnits="userSpaceOnUse"><stop offset="0" stop-color="#f48f4b"/><stop offset="1" stop-color="#c1540c"/></linearGradient><radialGradient id="_Radial6" cx="0" cy="0" r="1" gradientTransform="translate(45.65 124.16) scale(13.5993)" gradientUnits="userSpaceOnUse"><stop offset="0" stop-color="#fcb309"/><stop offset="1" stop-color="#f08a46"/></radialGradient><radialGradient id="_Radial7" cx="0" cy="0" r="1" gradientTransform="translate(102.56 124.16) scale(13.5993)" gradientUnits="userSpaceOnUse"><stop offset="0" stop-color="#fcb309"/><stop offset="1" stop-color="#f08a46"/></radialGradient><radialGradient id="_Radial8" cx="0" cy="0" r="1" gradientTransform="translate(73.68 142.42) scale(21.7703)" gradientUnits="userSpaceOnUse"><stop offset="0" stop-color="#782e00"/><stop offset="1" stop-color="#f8d3b9"/></radialGradient><linearGradient id="_Linear9" x2="1" gradientTransform="rotate(125.34 -25.1 69.34) scale(12.46418)" gradientUnits="userSpaceOnUse"><stop offset="0" stop-color="#874c48"/><stop offset="1" stop-color="#e5c682"/></linearGradient><linearGradient id="_Linear14" x2="1" gradientTransform="rotate(-87.12 113.7 30.7) scale(6.39434)" gradientUnits="userSpaceOnUse"><stop offset="0" stop-color="#870b4a"/><stop offset="1" stop-color="#d23a6a"/></linearGradient><linearGradient id="_Linear16" x2="1" gradientTransform="rotate(-117.65 84.06 49.05) scale(17.6993)" gradientUnits="userSpaceOnUse"><stop offset="0" stop-color="#2f081f"/><stop offset="1" stop-color="#870b4a"/></linearGradient><linearGradient id="_Linear17" x2="1" gradientTransform="rotate(-90 109.88 36.08) scale(41.9373)" gradientUnits="userSpaceOnUse"><stop offset="0" stop-color="#5a123a"/><stop offset="1" stop-color="#8f4818"/></linearGradient><radialGradient id="_Radial18" cx="0" cy="0" r="1" gradientTransform="translate(45.32 114.17) scale(25.8011)" gradientUnits="userSpaceOnUse"><stop offset="0" stop-color="#fff"/><stop offset="1" stop-color="#9ab1c7"/></radialGradient><linearGradient id="_Linear20" x2="1" gradientTransform="rotate(-105.9 79.73 49.3) scale(31.24717)" gradientUnits="userSpaceOnUse"><stop offset="0" stop-color="#2c3c4b"/><stop offset="1" stop-color="#5c7c9c"/></linearGradient><linearGradient id="_Linear21" x2="1" gradientTransform="rotate(-109.4 65.55 43.38) scale(6.49701)" gradientUnits="userSpaceOnUse"><stop offset="0"/><stop offset="1" stop-color="#4d4d4d"/></linearGradient><radialGradient id="_Radial22" cx="0" cy="0" r="1" gradientTransform="translate(102.44 114.17) scale(25.8011)" gradientUnits="userSpaceOnUse"><stop offset="0" stop-color="#fff"/><stop offset="1" stop-color="#9ab1c7"/></radialGradient><linearGradient id="_Linear24" x2="1" gradientTransform="scale(6.49701 -6.49701) rotate(70.6 20.85 1.9)" gradientUnits="userSpaceOnUse"><stop offset="0"/><stop offset="1" stop-color="#4d4d4d"/></linearGradient><linearGradient id="_Linear25" x2="1" gradientTransform="scale(31.24717 -31.24717) rotate(74.1 4.45 -.25)" gradientUnits="userSpaceOnUse"><stop offset="0" stop-color="#2c3c4b"/><stop offset="1" stop-color="#5c7c9c"/></linearGradient><linearGradient id="_Linear26" x2="1" gradientTransform="rotate(-63.38 111.64 -70.39) scale(16.8388)" gradientUnits="userSpaceOnUse"><stop offset="0" stop-color="#be8014"/><stop offset="1" stop-color="#5c440b"/></linearGradient><linearGradient id="_Linear27" x2="1" gradientTransform="rotate(15.47 -96.58 212.15) scale(56.8884)" gradientUnits="userSpaceOnUse"><stop offset="0" stop-color="#c0943e"/><stop offset=".18" stop-color="#dab668"/><stop offset=".64" stop-color="#b68b39"/><stop offset="1" stop-color="#5c440b"/></linearGradient><linearGradient id="_Linear29" x2="1" gradientTransform="rotate(-170.69 53.92 28.29) scale(60.151)" gradientUnits="userSpaceOnUse"><stop offset="0" stop-color="#522720"/><stop offset=".27" stop-color="#96463c"/><stop offset=".57" stop-color="#ab5044"/><stop offset=".82" stop-color="#9a483d"/><stop offset=".91" stop-color="#75372e"/><stop offset="1" stop-color="#522720"/></linearGradient><linearGradient id="_Linear30" x2="1" gradientTransform="rotate(-168.31 56.79 4.02) scale(56.1456)" gradientUnits="userSpaceOnUse"><stop offset="0" stop-color="#522720"/><stop offset=".3" stop-color="#97473c"/><stop offset=".66" stop-color="#aa5044"/><stop offset="1" stop-color="#522720"/></linearGradient><linearGradient id="_Linear31" x2="1" gradientTransform="rotate(-67.87 53.86 -18.63) scale(13.95485)" gradientUnits="userSpaceOnUse"><stop offset="0" stop-color="#be8014"/><stop offset="1" stop-color="#5c440b"/></linearGradient></defs></svg>