<svg xmlns="http://www.w3.org/2000/svg" fill-rule="evenodd" stroke-linejoin="round" stroke-miterlimit="1.41" clip-rule="evenodd" viewBox="0 0 145 146"><path fill="#d16058" d="M1.5 73.07v66.9c2.45 4.33 6.43 4.45 10.83 3.47l130.06-26.46V48.4c-12.42-19.42-41.34-24.6-64-31.83L1.5 73.07z"/><clipPath id="a"><path d="M1.5 73.07v66.9c2.45 4.33 6.43 4.45 10.83 3.47l130.06-26.46V48.4c-12.42-19.42-41.34-24.6-64-31.83L1.5 73.07z"/></clipPath><g clip-path="url(#a)"><path fill="#a6342e" d="M2.53 74.4l140.2-28.9v71.56L2.53 145.88V74.4z"/><path fill="#f4a5a0" d="M133.76 78.1L10.7 103.93v7.2l123.06-25.81v-7.2z"/><path fill="#f9e6d9" d="M133.76 85.14L10.7 110.46v23.7l123.06-25.31V85.14zm0-29.9L10.7 80.56v23.7l123.06-25.32v-23.7z"/><path fill="#f69d5d" d="M116.68 102.94a2.57 2.57 0 1 1 0 5.14 2.57 2.57 0 0 1 0-5.14zM111.53 94a2.8 2.8 0 1 1 0 5.6 2.8 2.8 0 0 1 0-5.6zm12.62-.92a3 3 0 1 1 0 5.98 3 3 0 0 1 0-5.98zM120.5 72.6a2.83 2.83 0 1 1 0 5.65 2.83 2.83 0 0 1 0-5.65zm-9.17-4.83a2.68 2.68 0 1 1 0 5.36 2.68 2.68 0 0 1 0-5.36zm9.67-4.36a2.75 2.75 0 1 1 0 5.5 2.75 2.75 0 0 1 0-5.5z"/></g><path fill="#722851" fill-rule="nonzero" d="M80 14.24c24.2 6.13 48.81 12.34 64.59 30.25v73.37L11.1 145.26c-4.05.83-8.75.59-11.11-3.59V72.4l78.9-58.5c.37.1.73.23 1.1.34zM48.38 41.61L3.78 74.3v.25l.26 63.42v2.5c1.36 1.7 4.19 1.26 6.22.8l67.38-14.2 62.5-12.84-.02-11.95-.02-37.34V46.22c-15.27-16.35-39.04-21.4-60.32-27.54l-.13-.04L48.38 41.6z"/><path fill="#f9e6d9" d="M91.45 34.65a5.33 5.33 0 0 1-.64-2.54c0-3.26 2.99-5.91 6.67-5.91 3.68 0 6.67 2.65 6.67 5.91 0 .3-.02.58-.07.86.9-.4 1.9-.61 2.96-.61 3.69 0 6.68 2.65 6.68 5.91 0 3.27-3 5.92-6.68 5.92l-.39-.01-42.14.04v-.03c-3.63-.05-6.56-2.68-6.56-5.92 0-3.26 2.98-5.91 6.67-5.91 1.6 0 3.07.5 4.22 1.34a5.3 5.3 0 0 1-.24-1.59c0-3.26 2.99-5.91 6.67-5.91 3.68 0 6.67 2.65 6.67 5.91 0 .91-.23 1.78-.65 2.55l10.16-.01z"/><circle cx="85.9" cy="21.95" r="13.85" fill="#ff636d"/><clipPath id="b"><circle cx="85.9" cy="21.95" r="13.85"/></clipPath><g clip-path="url(#b)"><path fill="#cf414f" d="M72.56 16.42s18.4-8.82 26.12 12.33c7.72-8.9-2.18-17.44-2.18-17.44S83.7-.2 72.56 16.4z"/></g><path fill="#722851" fill-rule="nonzero" d="M65.5.77c5.6 1.33 10.9 4.06 14.73 9.68.9 1.33 1.67 2.76 2.32 4.24l.07 1.18s-.62.84-.7.88l-1.09.08-.94-.71a20.7 20.7 0 0 0-.66-.97C73.97 7.85 64.36 4.31 57.68 3.57a42.73 42.73 0 0 0-3.18-.17L53.4 3l-.55-.97.33-1.05 1-.59c3.8-.64 7.43-.5 11.32.37z"/></svg>