<svg xmlns="http://www.w3.org/2000/svg" xmlns:xlink="http://www.w3.org/1999/xlink" width="296.588" height="261.986"><defs><ellipse id="a" cx="9" cy="10" rx="9" ry="7"/></defs><g fill="none" fill-rule="evenodd"><path fill="#FFF" d="M148.305 17.447c-57.442 0-143.08 54.93-143.08 140.208 0 85.28 99.786 99.116 141.866 99.116 42.08 0 144.295-9.487 144.295-99.116S205.748 17.447 148.306 17.447Z"/><path fill="#FF5042" d="M89.076 35.11C63.155 15.216 39.603 5.27 18.42 5.27c-9.815 0-18.673 78.774 4.807 87.92 14.165-17.715 25.453-30.28 33.86-37.696 6.225-5.49 16.888-12.286 31.99-20.385Zm118.459 0c25.922-19.894 49.474-29.84 70.656-29.84 9.815 0 18.673 78.774-4.806 87.92-14.166-17.714-25.452-30.279-33.861-37.695-6.225-5.49-16.887-12.286-31.989-20.385Z"/><path stroke="#1E0000" stroke-width="10" d="M148.305 17.447c-57.442 0-143.08 54.93-143.08 140.208 0 85.28 99.786 99.116 141.866 99.116 42.08 0 144.295-9.487 144.295-99.116S205.748 17.447 148.306 17.447Z"/><path fill="#FF9D0F" d="M153.215 17.447c0 54.083 5.422 117.135 55.821 117.135 0 41.97 45.865 51.947 79.049 53.568 11.629-50.544-7.47-93.08-57.295-127.61l51.396-52.755c-10.743-7.155-35.727.956-74.952 24.33-19.702-9.778-37.708-14.668-54.019-14.668Zm-9.819 0c0 54.083-5.421 117.135-55.82 117.135 0 41.97-45.865 51.947-79.05 53.568-11.628-50.544 7.47-93.08 57.295-127.61L14.425 7.785C25.17.63 50.153 8.74 89.377 32.115c19.702-9.778 37.709-14.668 54.02-14.668Z"/><path fill="#FFF" d="M128.306 17.47a4.91 4.91 0 0 1 4.91 4.91v13.98a4.91 4.91 0 0 1-9.82 0V22.38a4.91 4.91 0 0 1 4.91-4.91Zm40 0a4.91 4.91 0 0 1 4.91 4.91v13.98a4.91 4.91 0 0 1-9.82 0V22.38a4.91 4.91 0 0 1 4.91-4.91Z"/><g transform="translate(180.003 81.806)"><path fill="#8ADAE6" stroke="#000" stroke-width="6" d="M27.72 49.215h35.5v106l-35.5 13z"/><ellipse cx="38.846" cy="52.154" fill="#000" rx="35.75" ry="34.75"/><g fill="#FFF" transform="translate(14.673 26.48)"><circle cx="18.698" cy="6.745" r="6.745"/><circle cx="5.239" cy="14.994" r="5.239"/></g><path stroke="#000" stroke-linecap="round" stroke-width="8" d="M0 0c3.51 8.34 10.713 12.134 21.611 11.384"/></g><g transform="matrix(-1 0 0 1 116.609 81.806)"><path fill="#8ADAE6" stroke="#000" stroke-width="6" d="M27.72 49.215h35.5v106l-35.5 13z"/><ellipse cx="38.846" cy="52.154" fill="#000" rx="35.75" ry="34.75"/><g fill="#FFF" transform="translate(14.673 26.48)"><circle cx="18.698" cy="6.745" r="6.745"/><circle cx="5.239" cy="14.994" r="5.239"/></g><path stroke="#000" stroke-linecap="round" stroke-width="8" d="M0 0c3.51 8.34 10.713 12.134 21.611 11.384"/></g><path fill="#000" fill-opacity=".2" d="M153.215 239.206c44.94 0 86.606-10.351 120.857-27.998-15.449 20.124-37.494 33.063-66.139 38.812-35.874 7.2-75.555 7.2-119.044 0-32.192-9.337-55.842-24.985-70.95-46.943 36.655 22.558 83.818 36.129 135.276 36.129Z"/><path stroke="#000" stroke-linecap="round" stroke-width="8" d="M133.73 191.267c0-7.139 4.859-10.708 14.576-10.708s14.575 3.57 14.575 10.708"/><g transform="translate(139.306 142.11)"><mask id="b" fill="#fff"><use xlink:href="#a"/></mask><use xlink:href="#a" fill="#F83648"/><ellipse cx="9" cy="4" fill="#FFF" fill-opacity=".67" mask="url(#b)" rx="4.5" ry="4"/></g><path stroke="#1E0000" stroke-width="10" d="M278.59 5.27c9.73 0 18.685 77.28-4.201 87.663 10.548 18.471 16.997 40.127 16.997 64.722 0 89.63-102.215 99.116-144.295 99.116-42.08 0-141.865-13.837-141.865-99.116 0-24.105 6.842-45.786 17.956-64.486-23.592-9.36-14.571-87.9-4.762-87.9 20.75 0 43.772 9.544 69.068 28.632 20.65-10.692 42.213-16.454 60.817-16.454 18.9 0 40.85 5.475 61.8 16.015C235.171 14.667 258 5.27 278.59 5.27Z"/></g></svg>