<svg xmlns="http://www.w3.org/2000/svg" viewBox="0 0 66 66"><g fill="none" fill-rule="evenodd"><circle cx="33" cy="33" r="33" fill="#22D3EE"/><path fill="#FFF" d="M33 8a24.89 24.89 0 0 1 14.61 4.71l-4.676 6.493A16.923 16.923 0 0 0 33 16c-9.389 0-17 7.611-17 17s7.611 17 17 17c3.709 0 7.14-1.188 9.934-3.203l4.675 6.493A24.887 24.887 0 0 1 33 58C19.193 58 8 46.807 8 33S19.193 8 33 8Zm22.409 13.903a24.822 24.822 0 0 1 2.273 7.098h4.044a29.257 29.257 0 0 1 0 8h-4.044a24.822 24.822 0 0 1-2.273 7.096l-7.171-3.552c.554-1.117.99-2.304 1.288-3.544h-5.21A11.98 11.98 0 0 0 45 33c0-1.403-.24-2.75-.683-4l5.21-.001c-.3-1.24-.735-2.427-1.289-3.544l7.17-3.552Z"/></g></svg>