<svg xmlns="http://www.w3.org/2000/svg" viewBox="0 0 65 14"><path fill="#6366F1" d="M7.28 13.8V3.982h2.64v1.713h.103c.179-.61.479-1.07.9-1.384a2.38 2.38 0 0 1 1.458-.47 4.119 4.119 0 0 1 .857.096v2.416a3.558 3.558 0 0 0-.53-.102 4.766 4.766 0 0 0-.62-.045c-.401 0-.758.087-1.071.26-.314.172-.56.411-.742.718-.181.307-.272.66-.272 1.061V13.8H7.28ZM6.218 3.982v2.045H.158V3.982h6.06ZM1.546 13.8V3.272c0-.711.14-1.302.419-1.77A2.65 2.65 0 0 1 3.112.447C3.598.213 4.15.095 4.767.095c.418 0 .8.032 1.148.096.347.064.606.122.776.173l-.485 2.045a3.442 3.442 0 0 0-.393-.096 2.523 2.523 0 0 0-.477-.044c-.4 0-.68.092-.837.278-.158.185-.236.444-.236.776V13.8H1.546Zm12.592 0V3.982h2.723V13.8h-2.723Zm1.368-11.084c-.405 0-.752-.135-1.04-.406a1.291 1.291 0 0 1-.43-.974c0-.375.143-.698.43-.969.288-.27.635-.406 1.04-.406.404 0 .75.136 1.038.406.288.27.432.594.432.969 0 .379-.144.704-.432.974-.287.27-.634.406-1.038.406Zm7.202 11.276c-1.01 0-1.878-.206-2.604-.617a4.172 4.172 0 0 1-1.678-1.751c-.392-.757-.588-1.653-.588-2.688 0-1.01.196-1.897.588-2.66a4.34 4.34 0 0 1 1.658-1.783c.714-.426 1.553-.639 2.516-.639.647 0 1.251.103 1.812.31.56.207 1.05.517 1.47.93.42.413.747.932.981 1.556.235.625.352 1.355.352 2.19v.748h-8.29V7.9h5.727c0-.392-.086-.74-.256-1.042a1.86 1.86 0 0 0-.706-.712 2.06 2.06 0 0 0-1.046-.26c-.413 0-.778.095-1.096.285a2.04 2.04 0 0 0-.744.76c-.18.318-.271.67-.275 1.059v1.604c0 .486.09.906.271 1.26.181.353.438.626.77.817.333.192.727.288 1.183.288.303 0 .58-.043.831-.128.252-.085.467-.213.646-.383s.315-.38.409-.627l2.518.166a3.433 3.433 0 0 1-.783 1.583c-.394.45-.901.799-1.521 1.048-.62.25-1.335.374-2.145.374Zm8.207-5.868V13.8h-2.723V3.982h2.595v1.732h.115a2.756 2.756 0 0 1 1.093-1.358c.511-.335 1.131-.502 1.86-.502.682 0 1.276.15 1.783.447.508.299.902.724 1.183 1.276.281.551.422 1.209.422 1.972V13.8H34.52V8.034c.004-.6-.15-1.07-.46-1.41-.311-.338-.74-.507-1.285-.507-.367 0-.69.079-.969.236a1.634 1.634 0 0 0-.652.687c-.155.3-.235.662-.24 1.084Zm11.287 5.836c-.746 0-1.42-.193-2.023-.579-.603-.385-1.08-.954-1.432-1.706-.351-.752-.527-1.676-.527-2.771 0-1.125.181-2.062.543-2.81.362-.747.845-1.308 1.448-1.68a3.701 3.701 0 0 1 1.985-.56c.55 0 1.009.093 1.377.278.369.185.667.416.895.69.228.275.402.545.521.809h.083V.709h2.717V13.8h-2.685v-1.572h-.115a3.5 3.5 0 0 1-.54.808 2.721 2.721 0 0 1-.901.662c-.369.174-.817.262-1.346.262Zm.863-2.167c.439 0 .81-.12 1.115-.361.305-.241.54-.579.704-1.013.164-.435.246-.944.246-1.528 0-.584-.081-1.091-.243-1.521-.162-.43-.397-.763-.703-.998-.307-.234-.68-.351-1.119-.351-.447 0-.825.121-1.131.364-.307.243-.54.58-.697 1.01-.158.43-.237.93-.237 1.496 0 .57.08 1.075.24 1.512.16.436.392.777.697 1.022.305.245.68.368 1.128.368Zm10.629 2.199c-1.01 0-1.878-.206-2.605-.617a4.172 4.172 0 0 1-1.678-1.751c-.392-.757-.588-1.653-.588-2.688 0-1.01.196-1.897.588-2.66a4.34 4.34 0 0 1 1.66-1.783c.713-.426 1.551-.639 2.514-.639.648 0 1.252.103 1.813.31.56.207 1.05.517 1.47.93.42.413.746.932.98 1.556.235.625.352 1.355.352 2.19v.748h-8.29V7.9h5.727c0-.392-.085-.74-.255-1.042a1.86 1.86 0 0 0-.707-.712 2.06 2.06 0 0 0-1.045-.26c-.413 0-.779.095-1.096.285a2.04 2.04 0 0 0-.745.76c-.179.318-.27.67-.275 1.059v1.604c0 .486.09.906.272 1.26.181.353.438.626.77.817.333.192.727.288 1.183.288.302 0 .58-.043.83-.128a1.66 1.66 0 0 0 1.056-1.01l2.518.166a3.433 3.433 0 0 1-.783 1.583c-.394.45-.901.799-1.521 1.048-.62.25-1.335.374-2.145.374Zm5.483-.192V3.982h2.64v1.713h.103c.179-.61.479-1.07.9-1.384a2.38 2.38 0 0 1 1.458-.47 4.119 4.119 0 0 1 .857.096v2.416a3.558 3.558 0 0 0-.53-.102 4.766 4.766 0 0 0-.62-.045c-.401 0-.758.087-1.071.26-.314.172-.56.411-.742.718-.181.307-.272.66-.272 1.061V13.8h-2.723Z"/></svg>