<svg xmlns="http://www.w3.org/2000/svg" viewBox="0 0 571 571"><defs><radialGradient id="a" cx="100%" cy="50%" r="100%" fx="100%" fy="50%"><stop offset="0%" stop-color="#FECB36"/><stop offset="100%" stop-color="#EB2D5B"/></radialGradient></defs><g fill="none" fill-rule="evenodd"><path fill="#33207C" d="M-9.01-8.507h590v590h-590z"/><g fill="url(#a)" transform="translate(122.99 31.493)"><path d="M47 0c25.956 0 46.998 21.042 46.998 47 0 25.956-21.042 46.998-46.999 46.998S0 72.956 0 47 21.042 0 47 0zm0 24.403C34.52 24.403 24.402 34.52 24.402 47c0 12.48 10.117 22.596 22.596 22.596 12.48 0 22.596-10.117 22.596-22.596 0-12.48-10.117-22.596-22.596-22.596z"/><path d="M163 208c25.956 0 46.998 21.042 46.998 47 0 25.956-21.042 46.998-46.999 46.998S116 280.956 116 255 137.042 208 163 208zm0 24.403c-12.48 0-22.597 10.117-22.597 22.596 0 12.48 10.117 22.596 22.596 22.596 12.48 0 22.596-10.117 22.596-22.596 0-12.48-10.117-22.596-22.596-22.596z"/><path d="M279 415c25.956 0 46.998 21.042 46.998 47 0 25.956-21.042 46.998-46.999 46.998S232 487.956 232 462 253.042 415 279 415zm0 24.403c-12.48 0-22.597 10.117-22.597 22.596 0 12.48 10.117 22.596 22.596 22.596 12.48 0 22.596-10.117 22.596-22.596 0-12.48-10.117-22.596-22.596-22.596z"/><path d="M47 416c25.956 0 46.998 21.042 46.998 47 0 25.956-21.042 46.998-46.999 46.998S0 488.956 0 463 21.042 416 47 416zm0 24.403c-12.48 0-22.597 10.117-22.597 22.596 0 12.48 10.117 22.596 22.596 22.596 12.48 0 22.596-10.117 22.596-22.596 0-12.48-10.117-22.596-22.596-22.596z"/><path d="M279 0c25.956 0 46.998 21.042 46.998 47 0 25.956-21.042 46.998-46.999 46.998S232 72.956 232 47 253.042 0 279 0zm0 24.403c-12.48 0-22.597 10.117-22.597 22.596 0 12.48 10.117 22.596 22.596 22.596 12.48 0 22.596-10.117 22.596-22.596 0-12.48-10.117-22.596-22.596-22.596z"/></g><g fill="#571C7B"><path d="M454.993 370.703v64.838a220.2 220.2 0 01-.429.457l-58.242.004c24.506-16.586 44.73-39.02 58.671-65.299zM348.99 139.598c59.545 21.97 102.003 79.228 102.003 146.402 0 67.174-42.458 124.432-102.003 146.402v-29.216c44.275-20.435 75-65.222 75-117.186 0-51.964-30.725-96.751-75-117.186v-29.216zm.002 57.502c29.979 18.249 49.999 51.235 49.999 88.897 0 37.663-20.02 70.649-49.999 88.898v-34.008c14.196-13.968 23-33.4 23-54.89 0-21.489-8.804-40.921-23-54.889V197.1zm47.322-61.107l58.244.003.435.465.001 64.837c-13.942-26.282-34.17-48.718-58.68-65.305z"/><path d="M570.993 577.703v64.838a220.2 220.2 0 01-.429.457l-58.242.004c24.506-16.586 44.73-39.02 58.671-65.299zM464.99 346.598c59.545 21.97 102.003 79.228 102.003 146.402 0 67.174-42.458 124.432-102.003 146.402v-29.216c44.275-20.435 75-65.222 75-117.186 0-51.964-30.725-96.751-75-117.186v-29.216zm.002 57.502c29.979 18.249 49.999 51.235 49.999 88.897 0 37.663-20.02 70.649-49.999 88.898v-34.008c14.196-13.968 23-33.4 23-54.89 0-21.489-8.804-40.921-23-54.889V404.1zm47.322-61.107l58.244.003.435.465.001 64.837c-13.942-26.282-34.17-48.718-58.68-65.305z"/><path d="M106.993 784.703v64.838a220.2 220.2 0 01-.429.457l-58.242.004c24.506-16.586 44.73-39.02 58.671-65.299zM.99 553.598C60.534 575.568 102.992 632.826 102.992 700c0 67.174-42.458 124.432-102.003 146.402v-29.216c44.275-20.435 75-65.222 75-117.186 0-51.964-30.725-96.751-75-117.186v-29.216zM.991 611.1c29.979 18.249 49.999 51.235 49.999 88.897 0 37.663-20.02 70.649-49.999 88.898v-34.008c14.196-13.968 23-33.4 23-54.89 0-21.489-8.804-40.921-23-54.889V611.1zm47.322-61.107l58.244.003.435.465.001 64.837c-13.942-26.282-34.17-48.718-58.68-65.305z"/><path d="M454.993 784.703v64.838a220.2 220.2 0 01-.429.457l-58.242.004c24.506-16.586 44.73-39.02 58.671-65.299zM348.99 553.598c59.545 21.97 102.003 79.228 102.003 146.402 0 67.174-42.458 124.432-102.003 146.402v-29.216c44.275-20.435 75-65.222 75-117.186 0-51.964-30.725-96.751-75-117.186v-29.216zm.002 57.502c29.979 18.249 49.999 51.235 49.999 88.897 0 37.663-20.02 70.649-49.999 88.898v-34.008c14.196-13.968 23-33.4 23-54.89 0-21.489-8.804-40.921-23-54.889V611.1zm47.322-61.107l58.244.003.435.465.001 64.837c-13.942-26.282-34.17-48.718-58.68-65.305z"/><path d="M570.993 267.703v64.838a220.2 220.2 0 01-.429.457l-58.242.004c24.506-16.586 44.73-39.02 58.671-65.299zM464.99 36.598C524.534 58.568 566.992 115.826 566.992 183c0 67.174-42.458 124.432-102.003 146.402v-29.216c44.275-20.435 75-65.222 75-117.186 0-51.964-30.725-96.751-75-117.186V36.598zm.002 57.502c29.979 18.249 49.999 51.235 49.999 88.897 0 37.663-20.02 70.649-49.999 88.898v-34.008c14.196-13.968 23-33.4 23-54.89 0-21.489-8.804-40.921-23-54.889V94.1zm47.322-61.107l58.244.003.435.465.001 64.837c-13.942-26.282-34.17-48.718-58.68-65.305z"/><path d="M454.993-44.297v64.838a220.2 220.2 0 01-.429.457l-58.242.004c24.506-16.586 44.73-39.02 58.671-65.299zM348.99-275.402c59.545 21.97 102.003 79.228 102.003 146.402 0 67.174-42.458 124.432-102.003 146.402v-29.216c44.275-20.435 75-65.222 75-117.186 0-51.964-30.725-96.751-75-117.186v-29.216zm.002 57.502c29.979 18.249 49.999 51.235 49.999 88.897 0 37.663-20.02 70.649-49.999 88.898v-34.008c14.196-13.968 23-33.4 23-54.89 0-21.489-8.804-40.921-23-54.889V-217.9zm47.322-61.107l58.244.003.435.465.001 64.837c-13.942-26.282-34.17-48.718-58.68-65.305z"/><path d="M338.993 162.703v64.838a220.2 220.2 0 01-.429.457l-58.242.004c24.506-16.586 44.73-39.02 58.671-65.299zM232.99-68.402C292.534-46.432 334.992 10.826 334.992 78c0 67.174-42.458 124.432-102.003 146.402v-29.216c44.275-20.435 75-65.222 75-117.186 0-51.964-30.725-96.751-75-117.186v-29.216zm.002 57.502C262.97 7.349 282.99 40.335 282.99 77.997c0 37.663-20.02 70.649-49.999 88.898v-34.008c14.196-13.968 23-33.4 23-54.89 0-21.489-8.804-40.921-23-54.889V-10.9zm47.322-61.107l58.244.003.435.465.001 64.837c-13.942-26.282-34.17-48.718-58.68-65.305z"/><path d="M106.993 473.703v64.838a220.2 220.2 0 01-.429.457l-58.242.004c24.506-16.586 44.73-39.02 58.671-65.299zM.99 242.598C60.534 264.568 102.992 321.826 102.992 389c0 67.174-42.458 124.432-102.003 146.402v-29.216c44.275-20.435 75-65.222 75-117.186 0-51.964-30.725-96.751-75-117.186v-29.216zM.991 300.1c29.979 18.249 49.999 51.235 49.999 88.897 0 37.663-20.02 70.649-49.999 88.898v-34.008c14.196-13.968 23-33.4 23-54.89 0-21.489-8.804-40.921-23-54.889V300.1zm47.322-61.107l58.244.003.435.465.001 64.837c-13.942-26.282-34.17-48.718-58.68-65.305z"/><path d="M116.99 370.68c13.94 26.288 34.17 48.73 58.682 65.321l-58.24-.004a220.38 220.38 0 01-.441-.47l-.002-64.847zM222.993 139.6v29.216C178.722 189.253 148 234.04 148 286c0 51.962 30.722 96.748 74.994 117.184V432.4c-59.541-21.97-101.997-79.227-101.997-146.4 0-67.172 42.456-124.429 101.997-146.4zm-.001 57.503v34.01C208.8 245.08 200 264.51 200 285.998c0 21.486 8.8 40.917 22.994 54.884v34.01c-29.976-18.249-49.994-51.234-49.994-88.894 0-37.66 20.018-70.646 49.994-88.895zm-47.31-61.11c-24.518 16.592-44.75 39.037-58.694 65.329l.002-64.847c.15-.16.299-.32.449-.478l58.243-.004z"/><path d="M116.99-44.32c13.94 26.288 34.17 48.73 58.682 65.321l-58.24-.004a220.38 220.38 0 01-.441-.47l-.002-64.847zM222.993-275.4v29.216C178.722-225.747 148-180.96 148-129c0 51.962 30.722 96.748 74.994 117.184V17.4C163.453-4.57 120.997-61.827 120.997-129c0-67.172 42.456-124.429 101.997-146.4zm-.001 57.503v34.01C208.8-169.92 200-150.49 200-129.002c0 21.486 8.8 40.917 22.994 54.884v34.01c-29.976-18.249-49.994-51.234-49.994-88.894 0-37.66 20.018-70.646 49.994-88.895zm-47.31-61.11c-24.518 16.592-44.75 39.037-58.694 65.329l.002-64.847c.15-.16.299-.32.449-.478l58.243-.004z"/><path d="M464.99-45.32c13.94 26.288 34.17 48.73 58.682 65.321l-58.24-.004a220.38 220.38 0 01-.441-.47l-.002-64.847zM570.993-276.4v29.216C526.722-226.747 496-181.96 496-130c0 51.962 30.722 96.748 74.994 117.184V16.4C511.453-5.57 468.997-62.827 468.997-130c0-67.172 42.456-124.429 101.997-146.4zm-.001 57.503v34.01C556.8-170.92 548-151.49 548-130.002c0 21.486 8.8 40.917 22.994 54.884v34.01c-29.976-18.249-49.994-51.234-49.994-88.894 0-37.66 20.018-70.646 49.994-88.895zm-47.31-61.11c-24.518 16.592-44.75 39.037-58.694 65.329l.002-64.847c.15-.16.299-.32.449-.478l58.243-.004z"/><path d="M.99 162.68c13.94 26.288 34.17 48.73 58.682 65.321l-58.24-.004a220.38 220.38 0 01-.441-.47L.989 162.68zM106.993-68.4v29.216C62.722-18.747 32 26.04 32 78c0 51.962 30.722 96.748 74.994 117.184V224.4C47.453 202.43 4.997 145.173 4.997 78c0-67.172 42.456-124.429 101.997-146.4zm-.001 57.503v34.01C92.8 37.08 84 56.51 84 77.998c0 21.486 8.8 40.917 22.994 54.884v34.01c-29.976-18.249-49.994-51.234-49.994-88.894 0-37.66 20.018-70.646 49.994-88.895zm-47.31-61.11C35.165-55.415 14.933-32.97.99-6.678l.002-64.847c.15-.16.299-.32.449-.478l58.243-.004z"/><path d="M232.99 577.68c13.94 26.288 34.17 48.73 58.682 65.321l-58.24-.004a220.38 220.38 0 01-.441-.47l-.002-64.847zM338.993 346.6v29.216C294.722 396.253 264 441.04 264 493c0 51.962 30.722 96.748 74.994 117.184V639.4c-59.541-21.97-101.997-79.227-101.997-146.4 0-67.172 42.456-124.429 101.997-146.4zm-.001 57.503v34.01C324.8 452.08 316 471.51 316 492.998c0 21.486 8.8 40.917 22.994 54.884v34.01c-29.976-18.249-49.994-51.234-49.994-88.894 0-37.66 20.018-70.646 49.994-88.895zm-47.31-61.11c-24.518 16.592-44.75 39.037-58.694 65.329l.002-64.847c.15-.16.299-.32.449-.478l58.243-.004z"/><path d="M116.99 785.68c13.94 26.288 34.17 48.73 58.682 65.321l-58.24-.004a220.38 220.38 0 01-.441-.47l-.002-64.847zM222.993 554.6v29.216C178.722 604.253 148 649.04 148 701c0 51.962 30.722 96.748 74.994 117.184V847.4c-59.541-21.97-101.997-79.227-101.997-146.4 0-67.172 42.456-124.429 101.997-146.4zm-.001 57.503v34.01C208.8 660.08 200 679.51 200 700.998c0 21.486 8.8 40.917 22.994 54.884v34.01c-29.976-18.249-49.994-51.234-49.994-88.894 0-37.66 20.018-70.646 49.994-88.895zm-47.31-61.11c-24.518 16.592-44.75 39.037-58.694 65.329l.002-64.847c.15-.16.299-.32.449-.478l58.243-.004z"/></g></g></svg>